<svg xmlns="http://www.w3.org/2000/svg" viewBox="0 0 32 32" id="youtube"><path d="M30.409 5.787c-1.217-1.358-2.581-1.366-3.206-1.443-4.478-.347-11.196-.347-11.196-.347h-.015s-6.717 0-11.194.347c-.626.076-1.988.084-3.207 1.443C.633 6.823.32 9.177.32 9.177S0 11.939 0 14.701v2.589c0 2.764.32 5.525.32 5.525s.312 2.353 1.271 3.387c1.218 1.358 2.816 1.317 3.528 1.459 2.56.262 10.881.343 10.881.343s6.724-.012 11.203-.355c.625-.08 1.989-.088 3.206-1.447.958-1.034 1.271-3.387 1.271-3.387s.32-2.762.32-5.525v-2.589c0-2.763-.32-5.525-.32-5.525s-.312-2.353-1.271-3.389zM12.004 22.002V9.998L22.007 16l-10.003 6.002z"></path></svg>